<?xml version="1.0" encoding="UTF-8" ?>
<!DOCTYPE svg PUBLIC "-//W3C//DTD SVG 1.1//EN" "http://www.w3.org/Graphics/SVG/1.1/DTD/svg11.dtd">
<svg width="1000pt" height="1125pt" viewBox="0 0 1000 1125" version="1.1" xmlns="http://www.w3.org/2000/svg">
<g id="#233565ff">
<path fill="#233565" opacity="1.00" d=" M 392.94 97.25 C 422.52 74.48 458.85 63.81 493.25 50.75 C 495.90 51.78 498.59 52.70 501.18 53.88 C 509.28 57.64 514.53 65.78 523.00 68.88 C 526.66 70.36 530.58 69.32 534.23 68.38 C 534.15 76.55 535.35 84.85 533.61 92.92 C 532.53 98.17 529.00 102.95 523.95 104.94 C 516.39 107.96 508.03 107.49 500.06 107.21 C 463.37 105.38 426.27 110.90 391.90 123.96 C 352.32 138.88 316.91 162.38 280.57 183.60 C 268.10 190.76 255.13 197.51 244.74 207.65 C 207.29 242.52 167.62 276.15 139.10 319.15 C 116.67 352.52 102.21 391.15 97.14 431.03 C 93.00 469.06 88.78 507.07 84.65 545.10 C 83.56 558.13 73.28 568.04 71.30 580.83 C 70.70 584.52 71.11 588.27 71.68 591.94 C 75.04 614.74 78.12 637.58 81.55 660.37 C 79.26 658.80 76.95 656.63 73.96 656.83 C 70.75 657.11 68.66 660.18 67.98 663.09 C 66.92 667.30 69.05 671.42 70.94 675.06 C 72.41 677.66 74.69 680.75 78.07 680.42 C 80.93 679.82 82.66 677.22 84.61 675.29 C 92.17 690.66 97.83 706.85 104.49 722.61 C 110.21 736.11 116.21 749.90 126.16 760.90 C 176.21 818.75 235.61 867.35 289.76 921.15 C 296.31 919.60 303.15 919.01 309.38 916.37 C 312.49 915.17 314.41 912.34 316.25 909.74 C 316.87 912.78 317.47 916.09 315.96 918.99 C 313.87 923.84 309.12 926.74 304.39 928.60 C 322.77 939.82 342.20 949.82 363.28 954.81 C 376.91 958.36 391.01 959.17 404.99 960.25 C 441.27 963.48 477.29 969.64 512.56 978.71 C 514.55 979.27 516.62 979.05 518.59 978.50 C 537.64 973.25 557.31 970.58 577.00 969.23 C 582.10 969.26 585.47 965.04 588.71 961.72 C 591.41 958.69 594.68 956.24 598.27 954.34 C 598.75 949.64 599.27 944.95 599.62 940.25 C 601.27 942.21 603.15 943.98 605.24 945.49 C 606.90 939.11 604.20 932.84 601.57 927.15 C 608.40 933.21 613.55 940.77 618.32 948.49 C 620.28 944.56 622.24 939.34 627.02 938.29 C 630.35 939.38 629.84 943.93 630.65 946.76 C 631.22 940.26 632.24 933.80 633.55 927.42 C 636.63 929.83 638.23 933.45 640.30 936.67 C 643.74 933.01 643.70 926.27 649.04 924.59 C 654.29 923.96 659.60 926.04 664.83 924.45 C 664.12 927.97 662.93 932.32 665.56 935.36 C 667.81 937.70 671.32 936.01 673.52 934.45 C 677.70 931.23 681.47 927.52 685.49 924.11 C 687.66 928.37 690.22 933.18 695.09 934.76 C 700.65 936.44 706.23 933.56 710.96 930.87 C 776.40 889.11 838.48 842.37 899.55 794.52 C 899.10 800.70 898.55 806.87 898.18 813.05 C 900.59 805.53 902.97 797.99 905.22 790.42 C 907.84 791.99 910.71 794.32 913.99 793.34 C 918.90 791.91 921.45 787.07 924.03 783.07 C 933.45 768.04 946.10 755.13 960.66 745.04 C 943.82 790.23 922.68 834.16 894.21 873.24 C 883.69 887.85 871.75 901.34 860.33 915.25 C 859.94 923.06 858.96 932.18 852.35 937.39 C 846.77 941.62 839.39 939.88 832.92 940.30 C 827.71 940.58 821.77 942.36 818.91 947.03 C 818.01 951.07 821.03 954.57 822.77 957.95 C 818.63 955.00 814.37 951.45 809.00 951.49 C 801.63 951.49 794.94 954.96 787.98 956.91 C 786.17 957.63 782.81 958.14 783.34 960.81 C 784.40 964.00 787.14 966.22 789.38 968.61 C 796.23 974.99 800.30 984.57 799.32 993.97 C 793.79 988.22 788.50 982.25 783.08 976.40 C 764.01 986.96 752.15 1005.95 736.29 1020.30 C 729.31 1026.52 732.13 1036.72 732.20 1044.88 C 726.80 1044.72 721.42 1044.11 716.01 1044.16 C 711.50 1044.25 705.82 1044.91 703.50 1049.40 C 700.18 1056.21 701.77 1064.04 701.55 1071.33 C 695.42 1070.05 690.81 1065.59 687.39 1060.59 C 684.17 1056.37 680.24 1050.43 674.06 1051.82 C 660.26 1054.75 645.75 1056.38 633.35 1063.62 C 634.27 1066.75 636.97 1071.93 632.79 1073.80 C 627.22 1074.81 620.95 1074.16 616.19 1070.86 C 603.09 1063.07 588.66 1055.57 572.97 1056.21 C 567.76 1056.20 562.82 1057.94 557.80 1059.04 C 554.52 1058.98 551.46 1057.50 548.30 1056.77 C 525.11 1050.73 500.98 1049.30 477.10 1049.79 C 451.86 1050.32 426.76 1053.31 401.74 1056.49 C 401.92 1051.12 402.59 1045.64 401.13 1040.38 C 398.46 1044.08 393.23 1047.34 388.94 1044.11 C 363.55 1026.75 335.26 1014.38 308.37 999.64 C 305.25 997.65 301.49 998.74 298.05 998.63 C 283.56 998.64 269.21 994.43 256.61 987.38 C 248.92 983.33 243.50 975.94 235.27 972.77 C 220.47 966.12 203.97 970.27 188.42 968.33 C 172.78 965.71 158.55 956.68 148.67 944.38 C 137.39 930.48 130.76 913.38 126.99 896.03 C 125.53 889.47 125.24 882.39 121.43 876.62 C 118.18 871.21 112.57 867.11 106.14 866.79 C 88.28 809.37 60.76 755.73 37.62 700.41 C 35.59 695.69 33.51 690.95 32.42 685.91 C 29.60 673.86 30.59 661.40 30.54 649.14 C 33.94 649.80 37.83 651.12 41.02 649.10 C 44.02 647.10 44.06 643.08 43.59 639.90 C 42.58 632.86 41.17 625.89 39.63 618.96 C 31.98 584.28 16.86 551.85 0.00 520.79 L 0.00 520.61 C 4.67 497.96 7.30 474.96 11.07 452.16 C 16.25 419.47 23.39 385.93 41.82 357.84 C 62.70 326.17 96.16 305.97 119.33 276.26 C 128.82 263.85 127.83 245.74 140.10 235.12 C 168.51 206.84 196.25 177.73 227.39 152.38 C 233.41 147.44 241.60 146.69 249.07 147.46 C 259.62 148.50 270.30 150.26 280.86 148.27 C 286.90 128.16 303.54 111.08 324.08 105.94 C 330.66 104.20 337.58 104.37 344.22 105.77 C 348.85 106.91 353.22 104.40 356.90 101.87 C 366.56 95.00 374.32 85.93 383.22 78.16 C 385.59 76.13 388.67 74.06 391.95 74.92 C 394.31 75.87 394.39 78.83 394.42 80.99 C 394.26 86.44 393.26 91.81 392.94 97.25 M 78.48 700.83 C 81.39 706.45 85.13 711.76 86.62 718.00 C 87.64 722.21 86.88 726.92 89.34 730.72 C 92.41 735.76 98.00 738.32 103.17 740.65 C 95.58 730.38 92.46 717.76 86.42 706.65 C 84.81 703.64 82.33 700.44 78.48 700.83 M 64.70 709.30 C 69.00 714.16 72.83 719.40 77.02 724.36 C 74.82 717.34 72.99 710.19 70.39 703.31 C 67.45 699.79 61.45 706.37 64.70 709.30 Z" />
<path fill="#233565" opacity="1.00" d=" M 622.93 97.04 C 625.18 90.57 630.58 84.09 637.98 84.16 C 655.69 84.07 673.43 82.67 691.13 84.06 C 710.05 85.26 728.18 91.35 745.97 97.50 C 786.11 112.04 823.75 134.65 853.29 165.70 C 858.10 170.90 863.03 176.05 867.11 181.87 C 888.66 216.34 910.21 250.82 931.76 285.30 C 943.69 304.61 956.02 323.71 967.73 343.14 C 969.49 353.50 970.24 364.04 971.81 374.44 C 976.43 409.06 980.60 443.90 979.66 478.89 C 985.73 478.34 988.27 472.49 991.11 468.01 C 993.09 464.65 996.33 462.32 999.94 460.94 C 986.75 495.33 982.37 532.24 979.58 568.73 C 975.61 555.16 976.15 540.82 977.24 526.88 C 978.17 515.18 980.04 503.58 981.02 491.88 C 978.79 494.84 976.60 498.38 972.87 499.56 C 969.69 500.51 967.18 497.49 966.24 494.82 C 964.44 490.75 965.69 486.22 964.86 482.00 C 963.83 478.31 959.75 477.12 957.13 474.85 C 939.74 459.83 928.10 439.54 918.52 418.96 C 922.59 407.83 924.57 395.61 922.13 383.88 C 920.47 375.83 916.38 368.24 910.29 362.68 C 906.14 358.74 900.87 356.28 896.57 352.54 C 890.75 347.71 886.18 341.42 883.50 334.35 C 878.09 320.28 871.73 306.24 870.33 291.05 C 869.61 285.09 870.13 279.10 870.42 273.13 C 863.37 275.43 857.40 280.23 850.19 282.19 C 845.34 283.68 839.60 283.89 835.42 280.60 C 775.97 239.09 718.54 194.29 654.93 159.15 C 653.75 158.44 652.37 158.35 651.05 158.32 C 629.80 157.97 607.95 153.06 590.34 140.70 C 584.63 136.52 579.08 131.75 575.45 125.59 C 571.61 119.01 571.59 110.29 575.86 103.90 C 579.73 97.82 586.89 94.35 594.01 94.30 C 603.64 93.99 614.12 91.94 622.93 97.04 Z" />
<path fill="#233565" opacity="1.00" d=" M 406.04 440.98 C 407.03 440.45 408.32 439.58 409.30 440.70 C 413.76 444.24 417.03 448.98 421.14 452.89 C 425.05 456.98 429.61 460.51 432.66 465.36 C 438.58 474.30 446.61 481.80 451.33 491.52 C 452.65 493.97 451.05 496.70 449.84 498.85 C 444.72 506.85 437.42 513.08 430.79 519.77 C 424.23 526.64 415.70 531.22 409.16 538.09 C 404.00 543.46 397.87 547.80 391.47 551.54 C 387.96 553.30 388.79 557.99 390.12 560.94 C 393.22 566.66 399.03 570.03 403.68 574.33 C 418.88 589.50 435.86 602.83 450.62 618.46 C 454.09 622.37 457.97 626.14 460.05 631.04 C 461.33 633.82 460.86 637.41 458.59 639.56 C 454.13 644.02 448.54 647.09 443.05 650.10 C 433.58 655.59 426.29 663.99 417.44 670.34 C 414.20 672.69 410.52 674.33 407.00 676.20 C 401.97 678.84 398.04 683.69 392.16 684.55 C 386.71 685.92 380.91 684.00 377.06 680.00 C 362.46 662.65 347.24 645.81 332.68 628.41 C 329.66 625.44 327.05 621.63 322.98 620.05 C 319.87 620.13 320.36 623.88 320.32 626.03 C 320.76 635.03 319.48 643.98 319.58 652.98 C 319.10 659.33 319.59 665.71 319.18 672.05 C 319.22 674.03 317.10 674.88 315.54 675.36 C 287.05 676.62 258.52 675.67 230.01 675.73 C 221.91 675.63 213.85 674.70 205.78 674.05 C 205.28 672.39 204.69 670.73 204.60 669.00 C 204.29 661.00 204.17 653.00 204.18 645.00 C 203.12 628.67 203.45 612.28 202.49 595.94 C 201.45 580.64 200.32 565.33 200.13 549.99 C 200.92 540.67 201.60 531.28 200.57 521.94 C 199.84 516.98 200.72 512.01 200.84 507.04 C 201.48 494.70 200.97 482.34 200.77 469.99 C 200.46 464.98 199.71 459.95 200.18 454.93 C 200.35 452.46 202.29 450.46 204.53 449.61 C 208.49 448.10 212.76 447.56 216.99 447.54 C 248.99 447.52 280.98 447.56 312.98 447.52 C 315.64 447.57 318.38 447.27 320.98 447.98 C 324.32 449.54 324.66 453.76 324.78 457.00 C 324.86 474.75 324.00 492.50 323.08 510.22 C 325.70 509.74 328.58 509.53 330.71 507.75 C 342.07 498.12 352.32 487.29 363.43 477.39 C 372.47 469.11 381.27 460.57 390.57 452.58 C 395.46 448.38 400.36 444.10 406.04 440.98 Z" />
<path fill="#233565" opacity="1.00" d=" M 499.39 450.47 C 504.93 448.04 511.09 447.60 517.07 447.54 C 545.16 447.49 573.25 447.61 601.34 447.48 C 605.85 450.84 608.97 455.67 611.45 460.64 C 618.11 475.02 622.64 490.29 629.31 504.67 C 632.35 512.31 635.18 520.04 638.53 527.56 C 639.87 530.03 640.96 532.97 643.51 534.45 C 646.29 535.42 648.47 532.69 649.45 530.43 C 657.54 512.03 666.30 493.92 674.86 475.73 C 677.42 470.82 678.47 465.23 681.59 460.60 C 684.59 456.01 687.10 450.90 691.52 447.47 C 726.69 447.66 761.87 447.42 797.04 447.59 C 797.54 449.68 798.15 451.77 798.31 453.94 C 799.35 483.62 800.20 513.30 800.00 543.01 C 800.28 563.07 798.58 583.09 796.97 603.07 C 796.92 618.72 797.36 634.38 797.73 650.04 C 797.91 658.02 799.38 666.24 797.37 674.09 C 791.90 675.10 786.62 677.04 781.10 677.73 C 774.71 677.95 768.31 677.49 761.96 678.36 C 742.68 678.69 723.54 675.67 704.28 675.59 C 703.43 674.55 703.18 673.19 702.89 671.94 C 700.50 661.47 701.08 650.66 700.84 640.00 C 700.40 625.00 700.20 609.98 699.79 594.99 C 700.10 592.80 696.68 591.76 695.92 593.99 C 690.44 604.70 687.81 616.62 682.42 627.38 C 677.33 637.66 672.46 648.88 662.80 655.74 C 658.26 659.10 652.33 658.46 647.04 658.10 C 641.12 657.38 635.16 657.73 629.22 657.67 C 619.52 641.99 610.81 625.69 603.21 608.90 C 600.77 603.59 599.31 597.78 596.02 592.91 C 594.18 592.05 593.10 594.39 593.35 595.89 C 593.23 611.61 593.44 627.35 592.76 643.06 C 592.20 653.99 592.24 665.17 589.08 675.75 C 567.71 675.12 546.39 680.02 525.01 677.85 C 519.37 677.47 513.59 678.48 508.05 677.03 C 503.98 676.02 499.93 674.97 495.85 674.06 C 495.16 672.46 494.31 670.87 494.31 669.10 C 493.40 647.08 493.20 625.04 492.57 603.01 C 492.73 581.66 494.23 560.33 494.18 538.97 C 494.11 533.47 494.64 527.93 493.78 522.47 C 492.48 514.00 494.10 505.48 494.41 497.00 C 495.02 483.69 495.35 470.22 493.37 457.03 C 493.93 453.91 496.66 451.73 499.39 450.47 Z" />
</g>
</svg>
